<?xml version="1.0" ?><svg fill="black" id="Layer_1_1_" style="enable-background:new 0 0 64 64;" version="1.1" viewBox="0 0 64 64" xml:space="preserve" xmlns="http://www.w3.org/2000/svg" xmlns:xlink="http://www.w3.org/1999/xlink">
    <g>
        <path d="M58.306,29.729c3.239-3.396,4.899-7.857,4.674-12.561C62.561,8.382,55.341,1.283,46.544,1.009   c-5.275-0.165-10.286,2.116-13.629,6.143c-0.033-0.02-0.063-0.044-0.097-0.064c-1.002-0.567-2.142-0.708-3.209-0.423l-0.293-0.879   C28.361,2.924,25.693,1,22.675,1H17C10.935,1,6,5.935,6,12v12c0,4.145,2.307,7.76,5.702,9.635C5.52,35.488,1,41.223,1,48v15h2V48   c0-5.466,3.395-10.146,8.184-12.064l2.312,10.404l3.456-4.609l0.994,1.492l-2.012,11.571L20,59.536l4.066-4.743l-2.012-11.571   l0.994-1.492l3.456,4.609l2.312-10.404C33.605,37.854,37,42.534,37,48v15h2V48c0-6.556-4.234-12.128-10.105-14.164   c1.931-0.965,3.538-2.477,4.618-4.338c2.3,2.5,5.24,4.237,8.488,5.019V37h-2v2h2v16c0,2.206,1.794,4,4,4s4-1.794,4-4V39h2v-2h-2   v-2.488C53.143,33.759,56.011,32.136,58.306,29.729z M33,20h-2.556c-0.694-1.19-1.97-2-3.444-2c-1.694,0-3.137,1.063-3.719,2.554   c-1.788-0.765-3.797-0.768-5.574-0.039C17.116,19.044,15.68,18,14,18c-1.474,0-2.75,0.81-3.444,2H8v-1.465l3.036-2.023   C12.519,15.522,14.245,15,16.028,15h4.661c1.662,0,3.287-0.312,4.828-0.93l2-0.8L28,14.236C28.853,15.941,30.566,17,32.472,17H33   V20z M29,22c0,1.103-0.897,2-2,2s-2-0.897-2-2s0.897-2,2-2S29,20.897,29,22z M16,22c0,1.103-0.897,2-2,2s-2-0.897-2-2s0.897-2,2-2   S16,20.897,16,22z M17,3h5.675c2.155,0,4.062,1.374,4.743,3.419l1.027,3.08l1.069-0.642c0.721-0.432,1.586-0.443,2.318-0.029   C32.563,9.242,33,9.991,33,10.831V15h-0.528c-1.144,0-2.172-0.636-2.683-1.658l-1.306-2.612l-3.709,1.483   C23.47,12.735,22.095,13,20.689,13h-4.661c-2.18,0-4.29,0.639-6.102,1.848L8,16.132V12C8,7.037,12.038,3,17,3z M20.465,42h-0.93   l-1.299-1.949L19.069,39h1.861l0.833,1.051L20.465,42z M20.382,37h-0.764l-1-2h2.764L20.382,37z M14.504,41.66l-1.405-6.322   C14.034,35.124,15.002,35,16,35h0.382l1.279,2.557l-1.896,2.392l0.011,0.017L14.504,41.66z M20,56.464l-1.934-2.257L19.841,44   h0.317l1.775,10.207L20,56.464z M26.901,35.338l-1.405,6.322l-1.271-1.694l0.011-0.017l-1.896-2.392L23.618,35H24   C24.998,35,25.966,35.124,26.901,35.338z M24,33h-7c-4.962,0-9-4.037-9-9v-2h2c0,2.206,1.794,4,4,4   c1.996,0,3.641-1.474,3.938-3.388c1.49-0.82,3.303-0.873,4.84-0.105l0.288,0.144C23.379,24.547,25.017,26,27,26   c2.206,0,4-1.794,4-4h2v2C33,28.963,28.962,33,24,33z M34.414,27.514c0.289-0.854,0.474-1.753,0.544-2.686   C37.253,28.525,41.338,31,46,31c1.859,0,3.656-0.385,5.34-1.144l-0.822-1.824C49.094,28.675,47.574,29,46,29   c-6.065,0-11-4.935-11-11S39.935,7,46,7s11,4.935,11,11c0,3.523-1.708,6.86-4.57,8.927l1.171,1.621C56.981,26.107,59,22.164,59,18   c0-7.168-5.832-13-13-13c-4.634,0-8.698,2.444-11,6.104v-0.273c0-0.83-0.234-1.61-0.651-2.277   c2.948-3.633,7.417-5.688,12.132-5.547c7.761,0.243,14.131,6.506,14.501,14.257c0.198,4.151-1.266,8.088-4.124,11.085   C53.999,31.349,50.143,33,46,33C41.486,33,37.279,30.999,34.414,27.514z M48,55c0,1.103-0.897,2-2,2s-2-0.897-2-2V39h4V55z M48,37   h-4v-2.12c0.659,0.077,1.326,0.12,2,0.12c0.675,0,1.341-0.05,2-0.126V37z" style="fill:#fff;" />
        <path d="M53,21c0-2.206-1.794-4-4-4h-6c-1.103,0-2-0.897-2-2s0.897-2,2-2h6c1.103,0,2,0.897,2,2h2   c0-2.206-1.794-4-4-4h-2V9h-2v2h-2c-2.206,0-4,1.794-4,4s1.794,4,4,4h6c1.103,0,2,0.897,2,2s-0.897,2-2,2h-6c-1.103,0-2-0.897-2-2   h-2c0,2.206,1.794,4,4,4h2v2h2v-2h2C51.206,25,53,23.206,53,21z" style="fill:#fff;" />
        <rect height="10" style="fill:#fff;" width="2" x="30" y="53" />
        <rect height="2" style="fill:#fff;" width="2" x="30" y="49" />
        <rect height="14" style="fill:#fff;" width="2" x="8" y="49" />
    </g>
</svg>