<?xml version="1.0" ?><!DOCTYPE svg  PUBLIC '-//W3C//DTD SVG 1.1//EN'  'http://www.w3.org/Graphics/SVG/1.1/DTD/svg11.dtd'><svg enable-background="new 0 75.9 595.3 690" version="1.1" viewBox="0 75.9 595.3 690" xml:space="preserve" xmlns="http://www.w3.org/2000/svg" xmlns:xlink="http://www.w3.org/1999/xlink"><g id="UI_Solid"><g><path d="M297.6,76.6L0,248.8v344.4l297.6,172.2l297.6-172.2V248.8L297.6,76.6z M427.2,531.2c0,11.3-9.2,20.5-20.5,20.5H240.9    c-11.3,0-20.5-9.2-20.5-20.5h-32c-11.3,0-20.5-9.2-20.5-20.5V312.9c0-11.3,9.2-20.5,20.5-20.5h197.8c11.3,0,20.5,9.2,20.5,20.5v32    c11.3,0,20.5,9.2,20.5,20.5V531.2z"/><path d="M386.2,311.5H188.3c-0.8,0-1.4,0.6-1.4,1.4v197.8c0,0.8,0.6,1.4,1.4,1.4h197.8c0.8,0,1.4-0.6,1.4-1.4V312.9    C387.6,312.1,387,311.5,386.2,311.5z M359.5,365.4H240.1v109.9h-23.9V341.6h143.3V365.4z"/></g></g></svg>