<?xml version="1.0" ?><svg viewBox="0 0 512 512" xmlns="http://www.w3.org/2000/svg"><g id="Responsive"><path d="M127.7468,223.238H104.6975a8,8,0,1,0,0,16h23.0493a8,8,0,1,0,0-16Z"/><path d="M433.1208,111.45H178.5837v-.0328a27.4728,27.4728,0,0,0-27.4419-27.4414H81.3025a27.4728,27.4728,0,0,0-27.4419,27.4414v127.41a27.4731,27.4731,0,0,0,27.4419,27.4419h26.92v67.7388a25.0467,25.0467,0,0,0,25.0186,25.0185H258.2362A114.9858,114.9858,0,0,1,255.8708,385.7a93.2015,93.2015,0,0,0-43.8964,29.1684,8,8,0,0,0,6.1172,13.1558H349.29a8,8,0,0,0,6.1172-13.1558,94.52,94.52,0,0,0-44.99-29.4907,113.8062,113.8062,0,0,1-2.6892-26.3516H433.1208a25.0467,25.0467,0,0,0,25.0186-25.0185V136.469A25.0471,25.0471,0,0,0,433.1208,111.45Zm-363.26-.0328A11.4547,11.4547,0,0,1,81.3025,99.9758h69.8393a11.4547,11.4547,0,0,1,11.4419,11.4414v60.3583a289.4372,289.4372,0,0,0-32.2378.7077,295.9745,295.9745,0,0,0-60.4853,10.92ZM81.3025,250.2688a11.4548,11.4548,0,0,1-11.4419-11.4419V200.1915c3.8077-1.2944,42.9172-14.0755,92.7231-12.3662v51.0016a11.4548,11.4548,0,0,1-11.4419,11.4419Zm311.73,89.3131a8.63,8.63,0,1,1,8.63-8.63A8.63,8.63,0,0,1,393.0325,339.5819Zm29.7456,0a8.63,8.63,0,1,1,8.63-8.63A8.63,8.63,0,0,1,422.7781,339.5819Zm19.3613-36.5611H124.2224v-36.752h26.9194a27.4731,27.4731,0,0,0,27.4419-27.4419v-49.953c26.507,2.5792,55.1341,9.6666,82.5835,24.7645a312.8946,312.8946,0,0,0,127.0821,37.8179c7.7558.5664,14.8725.7856,21.2451.7852a219.16,219.16,0,0,0,32.645-2.1862Zm0-69.1446a8.04,8.04,0,0,0-.9355.1153c-.2056.038-20.8907,3.8276-52.3814,1.4633a296.8573,296.8573,0,0,1-119.9443-35.8359c-30.5081-16.78-62.1536-24.2125-90.2945-26.8287V127.45H433.1208a9.0291,9.0291,0,0,1,9.0186,9.019Z"/></g></svg>