<?xml version="1.0" ?><!DOCTYPE svg  PUBLIC '-//W3C//DTD SVG 1.0//EN'  'http://www.w3.org/TR/2001/REC-SVG-20010904/DTD/svg10.dtd'><svg enable-background="new 0 0 200 200" height="200px" id="Layer_1" version="1.0" viewBox="0 0 200 200" width="200px" xml:space="preserve" xmlns="http://www.w3.org/2000/svg" xmlns:xlink="http://www.w3.org/1999/xlink"><g id="New_Symbol"/><g id="New_Symbol_1_"/><g id="New_Symbol_1"/><g id="New_Symbol_9_2_"/><g id="New_Symbol_7"/><g id="New_Symbol_9_1_"/><g id="New_Symbol_9"/><g id="Nuevo_símbolo"/><g id="New_Symbol_10"/><g id="New_Symbol_12"/><g id="New_Symbol_14"/><g id="New_Symbol_15"/><g id="New_Symbol_16"/><g id="New_Symbol_17_1_"/><g id="New_Symbol_18"/><g id="New_Symbol_19"/><g id="New_Symbol_17"/><g><g><path d="M86.1,71.7c0.6,7.2,6.6,12.9,14,12.9c7.4,0,13.4-5.7,14-12.9h37.5v-1.4h-37.4c-0.1-7.6-6.4-13.8-14.1-13.8    S86.2,62.6,86,70.3H48.4v1.4H86.1z M100.1,83.2c-3.3,0-6.4-1.3-8.6-3.4c0.8-4.1,4.4-7.1,8.6-7.1c4.2,0,7.8,3,8.6,7.1    C106.4,81.9,103.4,83.2,100.1,83.2z M96.7,67.5c0-1.9,1.5-3.4,3.4-3.4c1.9,0,3.4,1.5,3.4,3.4s-1.5,3.4-3.4,3.4    C98.2,70.9,96.7,69.3,96.7,67.5z M100.1,57.9c7,0,12.7,5.7,12.7,12.7c0,3.1-1.1,5.9-2.9,8c-1-3.4-3.8-6.1-7.2-7    c1.4-0.9,2.3-2.4,2.3-4.1c0-2.7-2.2-4.8-4.8-4.8c-2.7,0-4.8,2.2-4.8,4.8c0,1.7,0.9,3.2,2.3,4.1c-3.4,0.9-6.2,3.5-7.2,7    c-1.8-2.2-2.9-5-2.9-8C87.4,63.5,93.1,57.9,100.1,57.9z"/><path d="M100.1,84.9c-7.3,0-13.6-5.6-14.3-12.9H48.1v-2.1h37.6c0.3-7.7,6.7-13.8,14.4-13.8c7.7,0,14.1,6.2,14.4,13.8h37.4V72    h-37.5C113.6,79.3,107.4,84.9,100.1,84.9z M48.8,71.3h37.6l0,0.3c0.6,7.1,6.6,12.6,13.7,12.6s13.1-5.5,13.7-12.6l0-0.3h37.5v-0.7    h-37.4l0-0.3c-0.1-7.4-6.3-13.5-13.7-13.5c-7.4,0-13.6,6-13.7,13.5l0,0.3H48.8V71.3z M100.1,83.5c-3.3,0-6.4-1.2-8.9-3.5l-0.1-0.1    l0-0.2c0.8-4.3,4.6-7.4,9-7.4c4.4,0,8.1,3.1,9,7.4l0,0.2l-0.1,0.1C106.5,82.3,103.4,83.5,100.1,83.5z M91.9,79.6    c2.3,2.1,5.2,3.2,8.2,3.2s6-1.1,8.2-3.2c-0.8-3.9-4.3-6.6-8.2-6.6C96.1,73,92.7,75.8,91.9,79.6z M109.7,79.3l-0.2-0.6    c-1-3.3-3.7-5.9-7-6.7l-0.8-0.2l0.7-0.4c1.3-0.8,2.1-2.2,2.1-3.8c0-2.5-2-4.5-4.5-4.5c-2.5,0-4.5,2-4.5,4.5c0,1.6,0.8,3,2.1,3.8    l0.7,0.4l-0.8,0.2c-3.3,0.9-6,3.5-7,6.7l-0.2,0.6L90,78.8c-1.9-2.3-3-5.3-3-8.3c0-7.2,5.8-13,13-13c7.2,0,13,5.8,13,13    c0,3-1.1,5.9-3,8.3L109.7,79.3z M103.4,71.4c3,1,5.5,3.4,6.6,6.4c1.6-2.1,2.4-4.7,2.4-7.3c0-6.8-5.5-12.3-12.3-12.3    c-6.8,0-12.3,5.5-12.3,12.3c0,2.6,0.9,5.2,2.4,7.3c1.1-3,3.5-5.4,6.6-6.4c-1.2-1-1.9-2.4-1.9-4c0-2.9,2.3-5.2,5.2-5.2    c2.9,0,5.2,2.3,5.2,5.2C105.3,69,104.6,70.5,103.4,71.4z M100.1,71.2c-2.1,0-3.8-1.7-3.8-3.8s1.7-3.8,3.8-3.8    c2.1,0,3.8,1.7,3.8,3.8S102.2,71.2,100.1,71.2z M100.1,64.4c-1.7,0-3.1,1.4-3.1,3.1s1.4,3.1,3.1,3.1c1.7,0,3.1-1.4,3.1-3.1    S101.8,64.4,100.1,64.4z"/></g><g><g><g><g><path d="M159.1,28.6c0-5.5-4.5-10-10-10H50.9c-5.5,0-10,4.5-10,10v142.8c0,5.5,4.5,10,10,10h98.3c5.5,0,10-4.5,10-10V28.6z        M157,171.4c0,4.4-3.5,7.9-7.9,7.9H50.9c-4.4,0-7.9-3.5-7.9-7.9V28.5c0-4.4,3.5-8,7.9-8h98.2c4.4,0,7.9,3.6,7.9,8V171.4z"/></g></g><g><g><path d="M100,165.8c-3.2,0-5.8,2.6-5.8,5.8s2.6,5.8,5.8,5.8s5.8-2.6,5.8-5.8S103.2,165.8,100,165.8z M100,175.4       c-2.1,0-3.8-1.7-3.8-3.8c0-2.1,1.7-3.8,3.8-3.8c2.1,0,3.8,1.7,3.8,3.8C103.8,173.7,102.1,175.4,100,175.4z"/></g></g><g><g><path d="M99.8,28.5h0.3c1.4,0,2.5-1.2,2.5-2.5c0-1.4-1.1-2.5-2.5-2.5h-0.3c-1.4,0-2.5,1.2-2.5,2.5       C97.3,27.4,98.5,28.5,99.8,28.5z M99.8,25.5h0.3c0.3,0,0.5,0.2,0.5,0.4c0,0.3-0.2,0.4-0.5,0.4h-0.3c-0.3,0-0.5-0.2-0.5-0.4       C99.3,25.7,99.6,25.5,99.8,25.5z"/></g></g><g><g><path d="M150.1,33v128.9H49.9V33H150.1 M152.2,30.9H47.8V164h104.5V30.9L152.2,30.9z"/></g></g></g><g><g><g><path d="M95.3,99H79.4c-0.3,0-0.5,0.4-0.5,1s0.2,1,0.5,1h15.9c0.3,0,0.5-0.4,0.5-1S95.6,99,95.3,99z"/></g></g><g><g><path d="M95.3,106H79.4c-0.3,0-0.5,0.4-0.5,1s0.2,1,0.5,1h15.9c0.3,0,0.5-0.4,0.5-1S95.6,106,95.3,106z"/></g></g><g><g><path d="M95.3,112H79.4c-0.3,0-0.5,0.4-0.5,1s0.2,1,0.5,1h15.9c0.3,0,0.5-0.4,0.5-1S95.6,112,95.3,112z"/></g></g><g><g><path d="M54.8,117h20V97h-20V117z M56.8,99h16v16h-16V99z"/></g></g><g><g><path d="M144.3,99h-15.9c-0.3,0-0.5,0.4-0.5,1s0.2,1,0.5,1h15.9c0.3,0,0.5-0.4,0.5-1S144.6,99,144.3,99z"/></g></g><g><g><path d="M144.3,106h-15.9c-0.3,0-0.5,0.4-0.5,1s0.2,1,0.5,1h15.9c0.3,0,0.5-0.4,0.5-1S144.6,106,144.3,106z"/></g></g><g><g><path d="M144.3,112h-15.9c-0.3,0-0.5,0.4-0.5,1s0.2,1,0.5,1h15.9c0.3,0,0.5-0.4,0.5-1S144.6,112,144.3,112z"/></g></g><g><g><path d="M103.8,117h20V97h-20V117z M105.8,99h16v16h-16V99z"/></g></g><g><g><path d="M95.3,125H79.4c-0.3,0-0.5,0.4-0.5,1s0.2,1,0.5,1h15.9c0.3,0,0.5-0.4,0.5-1S95.6,125,95.3,125z"/></g></g><g><g><path d="M95.3,132H79.4c-0.3,0-0.5,0.4-0.5,1s0.2,1,0.5,1h15.9c0.3,0,0.5-0.4,0.5-1S95.6,132,95.3,132z"/></g></g><g><g><path d="M95.3,138H79.4c-0.3,0-0.5,0.4-0.5,1s0.2,1,0.5,1h15.9c0.3,0,0.5-0.4,0.5-1S95.6,138,95.3,138z"/></g></g><g><g><path d="M54.8,143h20v-20h-20V143z M56.8,125h16v16h-16V125z"/></g></g><g><g><path d="M144.3,125h-15.9c-0.3,0-0.5,0.4-0.5,1s0.2,1,0.5,1h15.9c0.3,0,0.5-0.4,0.5-1S144.6,125,144.3,125z"/></g></g><g><g><path d="M144.3,132h-15.9c-0.3,0-0.5,0.4-0.5,1s0.2,1,0.5,1h15.9c0.3,0,0.5-0.4,0.5-1S144.6,132,144.3,132z"/></g></g><g><g><path d="M144.3,138h-15.9c-0.3,0-0.5,0.4-0.5,1s0.2,1,0.5,1h15.9c0.3,0,0.5-0.4,0.5-1S144.6,138,144.3,138z"/></g></g><g><g><path d="M103.8,143h20v-20h-20V143z M105.8,125h16v16h-16V125z"/></g></g><g><g><path d="M95.3,150H79.4c-0.3,0-0.5,0.4-0.5,1s0.2,1,0.5,1h15.9c0.3,0,0.5-0.4,0.5-1S95.6,150,95.3,150z"/></g></g><g><g><path d="M95.3,157H79.4c-0.3,0-0.5,0.4-0.5,1s0.2,1,0.5,1h15.9c0.3,0,0.5-0.4,0.5-1S95.6,157,95.3,157z"/></g></g><g><g><path d="M144.3,150h-15.9c-0.3,0-0.5,0.4-0.5,1s0.2,1,0.5,1h15.9c0.3,0,0.5-0.4,0.5-1S144.6,150,144.3,150z"/></g></g><g><g><path d="M144.3,157h-15.9c-0.3,0-0.5,0.4-0.5,1s0.2,1,0.5,1h15.9c0.3,0,0.5-0.4,0.5-1S144.6,157,144.3,157z"/></g></g><g><g><polygon points="56.8,163 56.8,150 72.8,150 72.8,163 74.8,163 74.8,148 54.8,148 54.8,163      "/></g></g><g><g><polygon points="105.8,163 105.8,150 121.8,150 121.8,163 123.8,163 123.8,148 103.8,148 103.8,163      "/></g></g></g></g></g></svg>